<svg width="48" height="52" viewBox="0 0 48 52" fill="none" xmlns="http://www.w3.org/2000/svg">
<path d="M47.45 37.985C46.0625 35.595 44 28.8325 44 20C44 14.6957 41.8929 9.60859 38.1422 5.85786C34.3914 2.10714 29.3044 0 24 0C18.6957 0 13.6086 2.10714 9.8579 5.85786C6.10717 9.60859 4.00003 14.6957 4.00003 20C4.00003 28.835 1.93503 35.595 0.547532 37.985C0.193208 38.5926 0.00536793 39.2829 0.00295326 39.9863C0.000538605 40.6896 0.183636 41.3812 0.533779 41.9912C0.883922 42.6013 1.38873 43.1082 1.9973 43.4608C2.60586 43.8135 3.29666 43.9995 4.00003 44H14.2025C14.664 46.2579 15.8911 48.2871 17.6764 49.7444C19.4616 51.2018 21.6955 51.9978 24 51.9978C26.3046 51.9978 28.5384 51.2018 30.3237 49.7444C32.109 48.2871 33.3361 46.2579 33.7975 44H44C44.7032 43.9991 45.3937 43.8128 46.0019 43.4599C46.6101 43.1071 47.1146 42.6001 47.4644 41.9901C47.8143 41.3802 47.9971 40.6888 47.9946 39.9856C47.9921 39.2825 47.8043 38.5924 47.45 37.985ZM24 48C22.7596 47.9996 21.5497 47.6148 20.537 46.8984C19.5243 46.1821 18.7585 45.1695 18.345 44H29.655C29.2416 45.1695 28.4758 46.1821 27.463 46.8984C26.4503 47.6148 25.2405 47.9996 24 48ZM4.00003 40C5.92503 36.69 8.00003 29.02 8.00003 20C8.00003 15.7565 9.68574 11.6869 12.6863 8.68629C15.6869 5.68571 19.7566 4 24 4C28.2435 4 32.3132 5.68571 35.3137 8.68629C38.3143 11.6869 40 15.7565 40 20C40 29.0125 42.07 36.6825 44 40H4.00003Z" fill="#B3B3B3"/>
</svg>
