<svg width="20" height="16" viewBox="0 0 20 16" fill="none" xmlns="http://www.w3.org/2000/svg">
<path d="M19.375 8.00004C19.375 8.29841 19.2564 8.58455 19.0455 8.79553C18.8345 9.00651 18.5483 9.12504 18.25 9.12504H4.46872L9.29872 13.9541C9.51007 14.1654 9.6288 14.4521 9.6288 14.751C9.6288 15.0499 9.51007 15.3365 9.29872 15.5478C9.08738 15.7592 8.80073 15.8779 8.50185 15.8779C8.20296 15.8779 7.91632 15.7592 7.70497 15.5478L0.954972 8.79785C0.850092 8.69333 0.766875 8.56914 0.710094 8.4324C0.653313 8.29565 0.624084 8.14904 0.624084 8.00097C0.624084 7.85291 0.653313 7.7063 0.710094 7.56955C0.766875 7.43281 0.850092 7.30862 0.954972 7.2041L7.70497 0.4541C7.80962 0.349453 7.93385 0.266442 8.07058 0.209807C8.20731 0.153173 8.35385 0.124023 8.50185 0.124023C8.64984 0.124023 8.79638 0.153173 8.93311 0.209807C9.06984 0.266442 9.19407 0.349453 9.29872 0.4541C9.40337 0.558747 9.48638 0.682981 9.54301 0.819709C9.59965 0.956437 9.6288 1.10298 9.6288 1.25097C9.6288 1.39897 9.59965 1.54551 9.54301 1.68224C9.48638 1.81897 9.40337 1.9432 9.29872 2.04785L4.46872 6.87504H18.25C18.5483 6.87504 18.8345 6.99356 19.0455 7.20454C19.2564 7.41552 19.375 7.70167 19.375 8.00004Z" fill="#1A1A1A"/>
</svg>
