<svg width="15" height="15" viewBox="0 0 15 15" fill="none" xmlns="http://www.w3.org/2000/svg">
<path d="M13.097 7.8166C13.097 7.99065 13.0279 8.15756 12.9048 8.28063C12.7817 8.4037 12.6148 8.47284 12.4408 8.47284H8.28455V12.6291C8.28455 12.8031 8.21541 12.97 8.09234 13.0931C7.96927 13.2162 7.80235 13.2853 7.62831 13.2853C7.45426 13.2853 7.28734 13.2162 7.16427 13.0931C7.0412 12.97 6.97206 12.8031 6.97206 12.6291V8.47284H2.81585C2.6418 8.47284 2.47489 8.4037 2.35182 8.28063C2.22875 8.15756 2.15961 7.99065 2.15961 7.8166C2.15961 7.64255 2.22875 7.47563 2.35182 7.35257C2.47489 7.2295 2.6418 7.16036 2.81585 7.16036H6.97206V3.00414C6.97206 2.8301 7.0412 2.66318 7.16427 2.54011C7.28734 2.41704 7.45426 2.3479 7.62831 2.3479C7.80235 2.3479 7.96927 2.41704 8.09234 2.54011C8.21541 2.66318 8.28455 2.8301 8.28455 3.00414V7.16036H12.4408C12.6148 7.16036 12.7817 7.2295 12.9048 7.35257C13.0279 7.47563 13.097 7.64255 13.097 7.8166Z" fill="#1A1A1A"/>
</svg>
